<svg version="1.1" id="Layer_1" xmlns="http://www.w3.org/2000/svg" x="0" y="0" viewBox="0 0 1200 1200" xml:space="preserve"><style>.st0,.st2{fill-rule:evenodd;clip-rule:evenodd;fill:#312783}.st2{fill:#15882e}</style><path class="st0" d="M778.1 593.83l.22-.88-.22.88zm-77.36 59.75c-26.68 0-9.28-58.95-4.65-72.18 4.94-14.11 18.49-43.42 30.14-52.09 13.4-9.99 28.18-9.94 44.2-7.6 3.57.5 18.93 3.78 22.39 5.42l-5.61 27.96-9.11 18.3c-3.09 5.95-12.06 20.41-15.85 25.46l-17.71 22.79-16.49 17.93c-5.77 5.78-19.16 14.01-27.31 14.01zm77.36-59.75c0 2.65-3.74 20.42-4.56 24.53-1.6 8.12-3.02 16.06-4.7 24.35-3.29 16.25 1.12 35.79 20.27 35.86 18.63.05 35.44-11.63 47.21-21.59 4.17-3.53 5.5-5.14 9.4-9 1.28-1.29 6-6.84 6.51-8.24.36-1.06 1.97-11.22 1.97-12.75l-9.58 10.04c-.06.07-.15.17-.18.23-.43.41 0 .04-.65.6-5.31 4.58-9.7 9.55-16.27 14-5.49 3.76-17 11.92-24 7.81-7.36-4.32-2.81-21.43-1.58-27.68.89-4.56 2.02-9.33 3-14.18 4.72-23.84 10.23-47.49 14.94-71l8.96-43c-4.58 0-9.45-.76-12.27-.85-17.97-.9-36.73-1.76-54.55 1.13-10.22 1.65-19.12 4.19-27.42 7.77-6.48 2.78-14.11 7.11-19.78 11.35l-7.29 5.79c-7.38 5.56-16.94 14.87-22.47 21.73-14.9 18.51-23.92 35.62-29.42 58.99-4.08 17.45-5.03 42.32 6.76 58.09 13.33 17.86 33.85 11.04 49.93 1.46 4.45-2.65 8.54-6.01 12.55-9.16 1-.72 1.45-1.31 2.41-2.08 5.25-4.24 8.87-8.16 13.66-12.93l8.37-9.24c7.91-9.34 20.91-27.69 26.98-39.3.75-1.39.66-1.92 1.8-2.73zm-420.28-127.7l-28.07-.25v-16.53l31.33-.2c.05-2.78 1.14-6.85 1.66-9.56 4.81-24.25 4.26-39.32 20.07-58.91 11.52-14.24 31.25-19.02 49.21-13.71 3.12.95 5.49 1.95 8.16 3.3l7.65 3.82 24.25-24.05c-2.29-.17-6.28-.96-8.39-1.22-28.15-1.46-53.27.57-78.23 15.66-27.9 16.89-48.01 47.65-54.9 79.34-1.49 6.86-.59 5.31-3.83 5.16l-38.57-.06c-2.15.1-2.01.3-2.03 2.47l.06 14.78h40.09c0 2.33-2.69 15.74-3.27 19.25-1.04 6.32-2.23 12.58-3.44 19.05-4.73 24.95-8.8 52.1-13.64 76.8-1.27 6.43-2.31 12.7-3.39 19.13-1.06 6.45-2.32 12.81-3.5 19.39-6.13 34.1-10.03 81.66-48.97 86.48-15.8 1.97-26.1-2.14-39.19-5.19l-4.85 5.79c-1.65 2.04-3.47 3.74-5.14 5.9l-8.77 10.08c-1.1 1.39-1.51 1.39-1.67 3.33 20.3 0 40.74 2.5 60.19-4.58 1.61-.58 3.08-1.14 4.74-1.79 9.94-3.95 17.01-8.88 25.13-15.38l6.72-6.37c2.01-2.61 5.81-6.45 9.35-11.12 2.02-2.65 3.63-5.28 5.5-8.04 1.79-2.71 3.19-5.28 4.84-8.23 14.63-26.18 23.87-61.77 29.68-91.02 1.45-7.23 3.12-15.25 4.36-22.67 3.72-22.37 8.84-45.79 12.63-67.99l4.23-22.86z"/><path d="M357.82 466.13l644.95.02 6.96-17.19-118.27-.12-5.75.26c-5.03-.64-261.06-.13-262.73-.13H377.05c-4.66 0-12.61.38-15.96.18l-31.33.2v16.53l28.06.25zm537.73 51.17c5.26 0 10.94-.38 15.03 3.77 6.96 7 2.53 20.6 1.02 28.66-1.07 5.84-2.04 11.05-3.21 16.84l-9.54 50.2c-1.85 9.18-9.04 44.37-9.04 51.12 0 9.58.68 19.72 7.45 26.53 6.65 6.66 11.76 8.68 22.01 8.68 13.96 0 30.41-8.83 41.26-16.05l24.01-18.96c.58-1.36.22-11.77.22-14.12-1.91.51-3.73 3.52-6.08 5.41-7.56 6.01-10.16 9.31-20.19 15.4-5.79 3.5-18.89 9.9-24.67 2.72-5.35-6.66-2.73-18.98-1.2-26.56l34.55-170.48c-2.02.96-5.55 1.79-8.02 2.61-13.1 4.38-27.69 8.52-40.73 12.89l-40.71 12.91c-4.31 1.23-6.92 1.59-7.13 3.91-1.13 12.22-1.41 10.97 2.79 9.76 1.31-.39 3.03-.77 4.54-1.2 3.35-.96 14.55-4.04 17.64-4.04z" fill="#ec6726" fill-rule="evenodd" clip-rule="evenodd"/><path class="st0" d="M531.31 550.86c0 13.79 4.27 23.03 12.39 31l23.28 26.25c3.8 4.72 7.37 7.09 10.87 14.09 8.04 16.05 4.11 33.41-15.17 37.76-4.54 1-7.6.69-12.14.57-6.46-.16-15.21-3.23-21.05-5.56-9.08-3.63-10.39-5.25-17.82-9.17-1.45 2.16-10.95 11.37-13 13.6l-7.88 8.48c3.48 1.85 16.46 5.69 20.16 6.47 26.22 5.54 51.64 4.06 73.73-11.19 5.1-3.54 11.94-10.23 15.12-15.6 2.14-3.6 3.47-5.8 4.93-10.19 4.62-13.98 1.72-28.51-7.07-39.51l-26.89-32.85c-3.23-4.09-8.1-9.14-10.27-13.49-2.89-5.81-5.12-10.9-4.24-19.09 1.39-13.03 16.19-20.45 27.41-20.45 5.17 0 9.25-.14 14.28 1.68 7.4 2.66 15.19 8.54 15.19 17.54 0 6.69-.5 5.17-.83 9h10.24c.92-1.87 3.58-14.17 4.2-17.07l3.98-17.71c-3.81-.89-6.54-2.89-15.26-4.39-17.47-2.98-33.62-1.64-49.82 5.62-5.8 2.6-13.4 7.02-17.87 11.57l-3.71 3.68c-7.1 8.17-12.76 16.72-12.76 28.96zm-144.45 1.23c0 8.62 3.13 18.54 8.36 25.21l19.65 22.09c.75.96 1.14 1.26 1.97 2.1l10.03 11.26c4.34 4.27 10.74 14.79 10.74 23.21 0 8.05-2.18 14.76-7.96 19.06-15.28 11.5-37.51 3.84-52.5-3.65-1.71-.84-3.02-1.64-4.75-2.59-1.53-.83-3.17-2.2-4.79-2.58l-15.79 16.12c-2.12 2.76-4.58 4.18-5.07 5.98 1.76.4 3.11 1.03 4.56 1.58 1.66.61 3.35 1.13 4.89 1.64 26.46 8.91 61.52 8.46 83.91-8.05 5.86-4.36 10.64-8.57 14.74-14.72 11.05-16.35 10.24-35.67-1.72-51.25l-34.27-41.83c-1.57-1.76-2.21-3.04-3.26-5.34-2.39-5.34-3.79-8.41-3.79-15.04 0-29.77 57.3-31.74 57.3-2.03 0 2.98-.78 4.49-.81 6.94 11.85 0 10.24.94 11.2-3.51.36-1.64.65-3.03.99-4.34.97-3.96 5.37-24.78 6.21-26.52-8.32-4.41-21.7-6.14-33.13-6.14-18.33 0-39.57 8.29-49.02 17.7-1.42 1.4-2.49 2-3.9 3.46-.84.9-.9 1.16-1.64 2.05-5.69 6.73-9.75 12.83-11.34 22.21-.29 1.71-.81 5.18-.81 6.98z"/><path class="st2" d="M917.65 434.23c-2.22 3.29-9.17 6.92-13.65 8.44-3.27 1.11-9.62 2.72-13.4 3-2.01.13-3.64.42-5.29.42 0 1.66-.06 1.8.4 3l5.75-.26c1.01-.45 13.76-.84 23.97-8.24 6.48-4.67 1.52-3.14 8.94-4.16 2.39-.32 3.59-.29 5.81-.74 34.01-6.91 47.37-51.19 47.63-82.52l.71-12.38c.48-3.35.12-9.33.12-12.97h-.82c-.44 5.41-10.52 20.66-13.91 25.38-21.09 23.57-53.73 46.7-46.26 81.03z"/><path d="M895.19 407.37c8.34 0 15.11 6.76 15.11 15.08s-6.76 15.08-15.11 15.08c-8.32 0-15.07-6.75-15.07-15.08 0-8.32 6.75-15.08 15.07-15.08z" fill-rule="evenodd" clip-rule="evenodd" fill="#844403"/><path class="st2" d="M953.96 715.71l-8.23 16.46H190.28v-3.08c39.31 2.72 65.2-2.58 81.97-13.33l681.71-.05z"/><path d="M243.18 795.62h6.09v42.07h20.16v5.11h-26.25v-47.18zm39.7 3.78c.07 2.1-1.47 3.78-3.92 3.78-2.17 0-3.71-1.68-3.71-3.78 0-2.17 1.61-3.85 3.85-3.85 2.3-.01 3.78 1.67 3.78 3.85zm-6.87 43.4v-33.88h6.16v33.88h-6.16zm40.54-1.26c-1.61.84-5.18 1.96-9.73 1.96-10.22 0-16.87-6.93-16.87-17.29 0-10.43 7.14-17.99 18.2-17.99 3.64 0 6.86.91 8.54 1.75l-1.4 4.76c-1.47-.84-3.78-1.61-7.14-1.61-7.77 0-11.97 5.74-11.97 12.81 0 7.84 5.04 12.67 11.76 12.67 3.5 0 5.81-.91 7.56-1.68l1.05 4.62zm5.03-2.38c0-2.59 1.75-4.41 4.2-4.41s4.13 1.82 4.13 4.41c0 2.52-1.61 4.41-4.2 4.41-2.45 0-4.13-1.89-4.13-4.41zm31.01 3.64v-47.18h6.65l15.12 23.87c3.5 5.53 6.23 10.5 8.47 15.33l.14-.07c-.56-6.3-.7-12.04-.7-19.39v-19.74h5.74v47.18h-6.16l-14.98-23.94c-3.29-5.25-6.44-10.64-8.82-15.75l-.21.07c.35 5.95.49 11.62.49 19.46v20.16h-5.74zm76.51-17.22c0 12.53-8.68 17.99-16.87 17.99-9.17 0-16.24-6.72-16.24-17.43 0-11.34 7.42-17.99 16.8-17.99 9.73 0 16.31 7.07 16.31 17.43zm-26.88.35c0 7.42 4.27 13.02 10.29 13.02 5.88 0 10.29-5.53 10.29-13.16 0-5.74-2.87-13.02-10.15-13.02s-10.43 6.72-10.43 13.16zm31.5 13.23c0-2.59 1.75-4.41 4.2-4.41s4.13 1.82 4.13 4.41c0 2.52-1.61 4.41-4.2 4.41-2.45 0-4.13-1.89-4.13-4.41zm42.21-36.12h-.14l-7.91 4.27-1.19-4.69 9.94-5.32h5.25v45.5h-5.95v-39.76zm52.78 16.52c0 15.47-5.74 24.01-15.82 24.01-8.89 0-14.91-8.33-15.05-23.38 0-15.26 6.58-23.66 15.82-23.66 9.59 0 15.05 8.54 15.05 23.03zm-24.71.7c0 11.83 3.64 18.55 9.24 18.55 6.3 0 9.31-7.35 9.31-18.97 0-11.2-2.87-18.55-9.24-18.55-5.39 0-9.31 6.58-9.31 18.97zm60.62-.7c0 15.47-5.74 24.01-15.82 24.01-8.89 0-14.91-8.33-15.05-23.38 0-15.26 6.58-23.66 15.82-23.66 9.59 0 15.05 8.54 15.05 23.03zm-24.71.7c0 11.83 3.64 18.55 9.24 18.55 6.3 0 9.31-7.35 9.31-18.97 0-11.2-2.87-18.55-9.24-18.55-5.39 0-9.31 6.58-9.31 18.97zm43.75-17.22h-.14l-7.91 4.27-1.19-4.69 9.94-5.32h5.25v45.5h-5.95v-39.76zm52.08-5.75v4.06l-19.81 41.44h-6.37l19.74-40.25v-.14h-22.26v-5.11h28.7zm36.61 22.27c0 15.47-5.74 24.01-15.82 24.01-8.89 0-14.91-8.33-15.05-23.38 0-15.26 6.58-23.66 15.82-23.66 9.59 0 15.05 8.54 15.05 23.03zm-24.72.7c0 11.83 3.64 18.55 9.24 18.55 6.3 0 9.31-7.35 9.31-18.97 0-11.2-2.87-18.55-9.24-18.55-5.38 0-9.31 6.58-9.31 18.97zm43.75-17.22h-.14l-7.91 4.27-1.19-4.69 9.94-5.32h5.25v45.5h-5.95v-39.76zm35.91 0h-.14l-7.91 4.27-1.19-4.69 9.94-5.32h5.25v45.5h-5.95v-39.76zm52.79 16.52c0 15.47-5.74 24.01-15.82 24.01-8.89 0-14.91-8.33-15.05-23.38 0-15.26 6.58-23.66 15.82-23.66 9.58 0 15.05 8.54 15.05 23.03zm-24.72.7c0 11.83 3.64 18.55 9.24 18.55 6.3 0 9.31-7.35 9.31-18.97 0-11.2-2.87-18.55-9.24-18.55-5.39 0-9.31 6.58-9.31 18.97zm60.62-.7c0 15.47-5.74 24.01-15.82 24.01-8.89 0-14.91-8.33-15.05-23.38 0-15.26 6.58-23.66 15.82-23.66 9.59 0 15.05 8.54 15.05 23.03zm-24.71.7c0 11.83 3.64 18.55 9.24 18.55 6.3 0 9.31-7.35 9.31-18.97 0-11.2-2.87-18.55-9.24-18.55-5.39 0-9.31 6.58-9.31 18.97zm49.42 22.54v-12.39h-21.14v-4.06l20.3-29.05h6.65v28.28h6.37v4.83h-6.37v12.39h-5.81zm0-17.22v-15.19c0-2.38.07-4.76.21-7.14h-.21c-1.4 2.66-2.52 4.62-3.78 6.72l-11.13 15.47v.14h14.91zm16.87 17.22v-3.78l4.83-4.69c11.62-11.06 16.87-16.94 16.94-23.8 0-4.62-2.24-8.89-9.03-8.89-4.13 0-7.56 2.1-9.66 3.85l-1.96-4.34c3.15-2.66 7.63-4.62 12.88-4.62 9.8 0 13.93 6.72 13.93 13.23 0 8.4-6.09 15.19-15.68 24.43l-3.64 3.36v.14h20.44v5.11h-29.05zm35.91 0v-3.78l4.83-4.69c11.62-11.06 16.87-16.94 16.94-23.8 0-4.62-2.24-8.89-9.03-8.89-4.13 0-7.56 2.1-9.66 3.85l-1.96-4.34c3.15-2.66 7.63-4.62 12.88-4.62 9.8 0 13.93 6.72 13.93 13.23 0 8.4-6.09 15.19-15.68 24.43l-3.64 3.36v.14h20.44v5.11h-29.05zm66.15-23.24c0 15.47-5.74 24.01-15.82 24.01-8.89 0-14.91-8.33-15.05-23.38 0-15.26 6.58-23.66 15.82-23.66 9.59 0 15.05 8.54 15.05 23.03zm-24.71.7c0 11.83 3.64 18.55 9.24 18.55 6.3 0 9.31-7.35 9.31-18.97 0-11.2-2.87-18.55-9.24-18.55-5.39 0-9.31 6.58-9.31 18.97z"/></svg>